<svg width="246" height="50" viewBox="0 0 246 50" fill="none" xmlns="http://www.w3.org/2000/svg">
<path d="M33.9217 29.6096C34.656 28.001 35.0057 26.2175 34.8659 24.469H34.8309H34.7959C34.5861 24.5389 34.3763 24.5739 34.1665 24.6438C33.7468 24.7837 33.3272 24.9236 32.9775 25.0635V25.0985C33.0124 25.2034 33.0124 25.3083 33.0474 25.4482C33.2223 26.777 33.2223 28.036 33.0124 29.225C32.9775 29.4348 32.9075 29.6796 32.8726 29.9593C33.1873 29.8544 33.4321 29.7495 33.6769 29.6796L33.9217 29.6096Z" fill="#25317A"/>
<path d="M24.9685 35.5895C24.2341 35.4846 23.4997 35.2748 22.7654 34.9601C22.7304 34.9951 22.6605 34.9951 22.6255 35.03C22.5555 35.065 22.4856 35.1 22.4506 35.1349C22.2408 35.2398 22.031 35.3448 21.8911 35.4147C23.0451 35.6945 24.2691 35.7994 25.4931 35.6945C25.2832 35.6595 25.1434 35.6245 24.9685 35.5895Z" fill="#25317A"/>
<path d="M26.0531 35.2047C26.5078 35.2047 26.9274 35.1697 27.382 35.0648C27.2771 35.0299 27.2072 34.9949 27.1022 34.9599C26.6826 34.7501 26.2979 34.5053 25.8433 34.0857C25.7384 33.9808 25.6335 33.8758 25.4936 33.736C25.1089 33.9108 24.7592 34.0507 24.4095 34.2255L24.1997 34.3305C23.9549 34.4354 23.7101 34.5403 23.4653 34.6802C23.9899 34.925 24.5494 35.0648 25.074 35.1697C25.3537 35.1697 25.7034 35.2047 26.0531 35.2047Z" fill="#25317A"/>
<path d="M28.1857 34.7852C28.2906 34.7852 28.3955 34.7852 28.5354 34.7152C28.955 34.5054 29.0949 33.9809 29.1649 33.7011C29.2348 33.3164 29.2698 32.8618 29.1998 32.3373C29.1998 32.2673 29.1998 32.2324 29.1998 32.1624V32.1274C28.7452 32.3373 28.2207 32.5471 27.6961 32.7919C27.5562 32.8618 27.3814 32.9318 27.2415 33.0017L27.0666 33.0716C26.8568 33.1766 26.647 33.2465 26.4022 33.3514L26.1924 33.4563C26.2274 33.5263 26.2973 33.5612 26.3323 33.6312C26.682 34.0508 27.0317 34.3306 27.3464 34.5404C27.5562 34.6803 27.7311 34.7502 27.9409 34.7852C28.0108 34.7502 28.1158 34.7852 28.1857 34.7852Z" fill="#25317A"/>
<path d="M31.2286 32.4422C31.5083 31.9876 31.7881 31.498 31.9629 30.9385C31.7182 31.0434 31.4384 31.1483 31.1936 31.2532C30.8089 31.4281 30.3543 31.6029 29.8997 31.8127C29.8997 32.0226 29.8997 32.1624 29.8997 32.3023C29.8997 32.722 29.8647 33.2815 29.6899 33.806C29.6549 33.911 29.6199 34.0159 29.585 34.1208C30.2494 33.6662 30.8089 33.1066 31.2286 32.4422Z" fill="#25317A"/>
<path d="M33.5716 30.3091C33.3618 30.379 33.1869 30.449 32.9771 30.5539C32.8722 30.5888 32.7673 30.6238 32.6624 30.6588C32.4176 31.4281 32.0679 32.1275 31.6133 32.722C31.5433 32.8269 31.4384 32.9668 31.3335 33.0717C32.2427 32.3024 32.9771 31.3582 33.5716 30.3091Z" fill="#25317A"/>
<path d="M29.8649 31.1482C30.2146 31.0083 30.5993 30.8685 30.984 30.6936C31.4386 30.5188 31.8582 30.3439 32.2079 30.239C32.3128 29.8543 32.3828 29.5046 32.4177 29.1549C32.5576 28.0708 32.5227 26.8818 32.2779 25.6229C32.2779 25.553 32.2429 25.483 32.2429 25.4131C31.7883 25.5879 31.2987 25.7628 30.8091 25.9726L30.4944 26.0775C29.9698 26.2873 29.4103 26.4972 28.8857 26.707C29.2005 27.6512 29.4103 28.4905 29.5851 29.3647C29.725 29.9942 29.8299 30.5887 29.8649 31.1482Z" fill="#25317A"/>
<path d="M25.7383 32.8969C26.2979 32.6521 26.8924 32.3723 27.4169 32.1625C27.9065 31.9527 28.466 31.7079 29.0955 31.4631C28.9906 30.7637 28.8157 30.1342 28.6758 29.5747C28.4311 28.6305 28.1513 27.8262 27.9065 27.0918C27.2071 27.3716 26.4377 27.6863 25.5985 28.036L25.3187 28.1409C24.6193 28.4556 23.9548 28.7354 23.3604 29.0152C23.78 29.8195 24.1996 30.5888 24.6543 31.3232C25.004 31.9177 25.3886 32.4423 25.7383 32.8969Z" fill="#25317A"/>
<path d="M23.8147 33.771L23.8847 33.736C24.3043 33.5262 24.654 33.3863 24.9688 33.2464C24.5142 32.7218 24.1295 32.2323 23.8497 31.8476C23.3252 31.1132 22.8356 30.3439 22.346 29.4696C21.7165 29.7494 21.192 29.9942 20.7024 30.204C20.1429 30.4488 19.6183 30.6936 19.0938 30.9384C19.0938 30.9733 19.1287 30.9733 19.1287 31.0083C19.1637 31.0782 19.1987 31.1132 19.2336 31.1832C20.003 32.1973 20.8423 33.0715 21.7165 33.701C21.9963 33.9108 22.311 34.1207 22.6258 34.2955C23.1503 34.1207 23.535 33.9108 23.8147 33.771Z" fill="#25317A"/>
<path d="M21.3322 35.0649C21.577 34.9251 21.8218 34.7852 22.1016 34.6453C21.8917 34.5404 21.6819 34.4005 21.4721 34.2606C20.4579 33.5962 19.5487 32.7219 18.7094 31.7078C18.6395 31.6029 18.5696 31.5329 18.4996 31.428L18.4297 31.3231H18.3947C18.08 31.463 17.6603 31.7078 17.2407 31.9176C17.0658 32.0225 16.856 32.1274 16.7161 32.2323L16.6812 32.2673C17.9051 33.5962 19.4438 34.6103 21.1574 35.1699L21.3322 35.0649Z" fill="#25317A"/>
<path d="M16.0167 19.7479C16.2964 18.9436 16.6811 18.2442 17.1357 17.6147C16.3314 18.3841 15.632 19.2933 15.1074 20.2725C15.4222 20.0976 15.7019 19.9228 16.0167 19.7479Z" fill="#25317A"/>
<path d="M17.555 17.8944C17.2403 18.314 16.9955 18.7687 16.7856 19.2932C16.9955 19.1883 17.2053 19.0484 17.4501 18.9435C17.9397 18.6987 18.3943 18.4539 18.8839 18.2441V18.1392C18.9188 17.5097 18.9888 17.0551 19.1287 16.6005C19.1636 16.4956 19.1986 16.3907 19.2336 16.2858C18.5691 16.7404 17.9746 17.2999 17.555 17.8944Z" fill="#25317A"/>
<path d="M20.5971 15.6564C20.4922 15.6564 20.3873 15.6913 20.2824 15.6913C19.9677 15.8662 19.7579 16.2159 19.6529 16.7055C19.583 17.0552 19.583 17.4049 19.583 17.8595C20.0027 17.6497 20.4573 17.4399 20.9818 17.23C21.5064 17.0202 21.961 16.8104 22.3806 16.6355C22.0659 16.3208 21.7861 16.076 21.5064 15.8662C21.2616 15.7963 20.9469 15.6564 20.5971 15.6564Z" fill="#25317A"/>
<path d="M21.4019 15.3417C21.5068 15.3767 21.6117 15.4117 21.7166 15.4467C22.2411 15.6914 22.6608 16.0411 22.9755 16.3209C23.0105 16.3559 23.0455 16.3909 23.0455 16.3909C23.57 16.181 24.0596 16.0062 24.5492 15.8313C24.8289 15.7264 25.0737 15.6565 25.3185 15.5865C24.794 15.3767 24.2694 15.2368 23.7798 15.1669C23.0455 15.0969 22.2411 15.1319 21.4019 15.3417Z" fill="#25317A"/>
<path d="M27.1722 15.0969C26.1231 14.8171 25.039 14.6773 23.9199 14.7472C24.6543 14.8171 25.4236 15.027 26.193 15.3767C26.5427 15.2368 26.8574 15.1668 27.1722 15.0969Z" fill="#25317A"/>
<path d="M28.1512 15.4116L28.0113 15.4466C27.6966 15.5165 27.3469 15.6214 26.9272 15.7264C27.0671 15.7963 27.242 15.9012 27.3819 16.0061C28.396 16.6706 29.3052 17.5448 30.1445 18.5939C30.1795 18.6639 30.2494 18.6988 30.2844 18.7688L30.3194 18.8387C30.774 18.6988 31.1936 18.559 31.5783 18.454C31.8231 18.3841 32.0679 18.3491 32.2427 18.3142H32.2777C31.1936 17.0203 29.7598 16.0061 28.1512 15.4116Z" fill="#25317A"/>
<path d="M24.794 16.4607C24.4093 16.6005 23.9897 16.7754 23.605 16.9153C24.0596 17.4049 24.5142 17.9294 24.9688 18.5938C25.3535 19.1184 25.7382 19.7479 26.0879 20.3773C26.6124 20.1675 27.172 19.9577 27.8014 19.7129C28.4309 19.4681 28.9904 19.2933 29.5499 19.0834V19.0485C28.8156 17.9993 27.9763 17.1601 27.067 16.5306C26.7873 16.3208 26.4725 16.1459 26.1578 15.9711C25.7032 16.111 25.2486 16.2858 24.794 16.4607Z" fill="#25317A"/>
<path d="M21.5067 17.7897L20.9822 17.9995C20.5975 18.1744 20.1779 18.3492 19.6533 18.594C19.7233 19.2584 19.8981 19.9928 20.1079 20.8671C20.2478 21.3916 20.4227 21.9162 20.6675 22.6506C20.8773 22.5457 21.1221 22.4407 21.3319 22.3708L21.4018 22.3358C21.8565 22.126 22.346 21.9512 22.8356 21.7413C23.57 21.4266 24.3393 21.1119 25.1087 20.7971C24.8289 20.2726 24.5142 19.748 24.1645 19.1535C23.8498 18.6639 23.3951 17.9645 22.8356 17.2651C22.346 17.405 21.8914 17.6148 21.5067 17.7897Z" fill="#25317A"/>
<path d="M18.9185 18.9436C18.5338 19.1185 18.1841 19.2933 17.7644 19.5031C17.3448 19.713 16.9251 19.9228 16.5055 20.1326C16.4006 20.4823 16.3307 20.832 16.2957 21.1817C16.1558 22.2658 16.1908 23.4198 16.4356 24.6438C16.9251 24.399 17.4147 24.1542 17.9743 23.8744C18.5688 23.5947 19.1283 23.3499 19.6878 23.0701C19.478 22.4057 19.3381 21.7412 19.1982 21.0768C19.0933 20.4124 18.9534 19.713 18.9185 18.9436Z" fill="#25317A"/>
<path d="M14.6871 21.2517C14.0576 22.7904 13.8128 24.504 13.9527 26.1476C14.0926 26.0427 14.2674 25.9028 14.4423 25.7979C14.792 25.588 15.1417 25.3782 15.5963 25.0985L15.6662 25.0635C15.6662 25.0285 15.6662 24.9586 15.6313 24.9236V24.8886C15.4215 23.5598 15.4215 22.3008 15.6313 21.1118C15.6662 20.937 15.7012 20.7621 15.7362 20.5873C15.3515 20.7971 15.0368 21.0069 14.757 21.1818L14.6871 21.2517Z" fill="#25317A"/>
<path d="M16.2258 31.7777L16.2957 31.7078C16.5055 31.5679 16.6804 31.428 16.8552 31.2881C17.2049 31.0433 17.5896 30.8335 17.9393 30.6237C17.4497 29.9243 17.0651 29.1899 16.7154 28.4206C16.3307 27.5463 16.0509 26.672 15.8411 25.7628C15.5613 25.9027 15.1767 26.0775 14.792 26.3223C14.6521 26.4273 14.4423 26.5322 14.2674 26.6371C14.1975 26.672 14.1276 26.742 14.0926 26.777L14.0576 26.8119C14.1975 27.6512 14.4423 28.4905 14.792 29.2948C15.1417 30.239 15.6313 31.0433 16.2258 31.7777Z" fill="#25317A"/>
<path d="M32.8372 24.329C33.1519 24.2241 33.5366 24.1191 33.9562 23.9793C34.201 23.9093 34.4108 23.8744 34.6207 23.8394C34.6556 23.8394 34.7256 23.8394 34.7605 23.8044C34.6207 22.8602 34.3759 21.916 33.9912 21.0068C33.6415 20.2374 33.2218 19.5031 32.7323 18.8386H32.6623C32.5574 18.8386 32.4525 18.8736 32.3826 18.9086C32.1727 18.9435 31.9629 19.0135 31.7531 19.0834C31.4384 19.1883 31.1236 19.2932 30.7739 19.4331C31.2635 20.1675 31.6832 20.9718 32.0678 21.8111C32.4175 22.6504 32.6623 23.4897 32.8372 24.329Z" fill="#25317A"/>
<path d="M32.0331 24.6087C31.8233 23.8044 31.5435 23.0001 31.2288 22.1958C30.8791 21.3565 30.4595 20.5522 29.9699 19.7828C29.3754 20.0276 28.7809 20.2375 28.0815 20.5172C27.5569 20.727 27.0324 20.9369 26.5078 21.1467C26.9275 21.951 27.3471 22.8253 27.8017 23.7695C28.1164 24.5038 28.3962 25.2032 28.641 25.9026C29.2005 25.6928 29.7251 25.483 30.2147 25.2732C30.8441 25.0284 31.4386 24.8186 32.0331 24.6087Z" fill="#25317A"/>
<path d="M22.9755 28.2457C23.2553 28.1058 23.5351 28.0009 23.8498 27.861C24.4093 27.6162 24.8639 27.4414 25.2836 27.2665C26.1578 26.8818 26.9272 26.5671 27.6266 26.2873C27.3468 25.553 27.0671 24.8536 26.7873 24.1891C26.4376 23.3848 26.0529 22.5105 25.5633 21.6013L25.5284 21.5314C24.6891 21.8811 23.9197 22.1958 23.1854 22.4756L22.9056 22.5805C22.3111 22.8602 21.6467 23.14 20.9473 23.4547C21.297 24.3989 21.6467 25.3431 22.0663 26.2174C22.3111 26.8469 22.5909 27.5113 22.9755 28.2457Z" fill="#25317A"/>
<path d="M18.3591 24.6438C17.7646 24.9236 17.1701 25.2033 16.6455 25.4481C16.8903 26.3573 17.205 27.2666 17.5897 28.1059C17.9044 28.8402 18.3241 29.5746 18.7437 30.274C19.2683 29.9943 19.8278 29.7145 20.4223 29.4347C20.8769 29.2249 21.4015 28.9801 21.996 28.7004C21.6812 28.0709 21.3665 27.4065 21.0518 26.6721C20.6321 25.6929 20.2824 24.7837 20.0027 23.9094C19.3033 24.1892 18.8137 24.434 18.3591 24.6438Z" fill="#25317A"/>
<path d="M27.6972 37.0934C27.6972 37.0584 27.6272 37.0234 27.5923 37.0234C27.5223 37.0584 27.4524 37.0584 27.3824 37.0934C27.3475 37.0934 27.3125 37.1633 27.3125 37.1983L28.2917 43.1432L30.285 48.8784C30.285 48.9134 30.3549 48.9483 30.3899 48.9483L30.5997 48.9134C30.6347 48.9134 30.6697 48.8434 30.6697 48.8084L29.6555 42.7935L27.6972 37.0934Z" fill="#25317A"/>
<path d="M21.1566 13.2783C21.1566 13.3133 21.2265 13.3483 21.2615 13.3133L21.4713 13.2783C21.5063 13.2783 21.5412 13.2434 21.5412 13.1734L20.5271 7.15854L18.5338 1.49334C18.5338 1.45837 18.4988 1.45837 18.4638 1.45837C18.3939 1.49334 18.324 1.49334 18.254 1.49334C18.2191 1.49334 18.1841 1.52831 18.1841 1.59826L19.1633 7.54321L21.1566 13.2783Z" fill="#25317A"/>
<path d="M25.7729 37.4429C25.7729 37.4079 25.7379 37.3729 25.6679 37.3729C25.598 37.3729 25.5281 37.3729 25.4581 37.4079C25.4232 37.4079 25.3882 37.4429 25.3882 37.4778L25.4232 43.4927L26.5072 49.4727C26.5072 49.5076 26.5422 49.5426 26.5772 49.5426L26.787 49.5076C26.822 49.5076 26.8569 49.4727 26.8569 49.4377L26.787 43.3529L25.7729 37.4429Z" fill="#25317A"/>
<path d="M23.0805 12.9287C23.0805 12.9637 23.1154 12.9987 23.1854 12.9987L23.3952 12.9637C23.4302 12.9637 23.4652 12.9287 23.4652 12.8937L23.3952 6.80891L22.3461 0.89892C22.3461 0.86395 22.3111 0.828979 22.2412 0.828979C22.1712 0.828979 22.1013 0.828979 22.0314 0.86395C21.9964 0.86395 21.9614 0.89892 21.9614 0.933891L21.9964 6.94879L23.0805 12.9287Z" fill="#25317A"/>
<path d="M23.7798 37.443C23.7099 37.443 23.6399 37.443 23.57 37.443C23.535 37.443 23.5 37.478 23.4651 37.5129L22.5908 43.4579L22.7307 49.5427C22.7307 49.5777 22.7657 49.6127 22.8006 49.6127H23.0105C23.0454 49.6127 23.0804 49.5777 23.1154 49.5427L24.0246 43.5278L23.9197 37.5129C23.8498 37.478 23.8148 37.443 23.7798 37.443Z" fill="#25317A"/>
<path d="M25.0738 12.9287H25.2836C25.3186 12.9287 25.3535 12.8937 25.3535 12.8587L26.2628 6.84381L26.1579 0.863886C26.1579 0.828916 26.1229 0.793945 26.0879 0.793945C26.018 0.793945 25.948 0.793945 25.8781 0.793945C25.8431 0.793945 25.8082 0.828916 25.8082 0.863886L24.8989 6.80884L25.0388 12.8937C25.0038 12.8937 25.0388 12.9287 25.0738 12.9287Z" fill="#25317A"/>
<path d="M21.6469 37.1283C21.612 37.1283 21.577 37.1283 21.542 37.1982L19.7236 42.9334L18.8843 48.9483C18.8843 48.9832 18.9192 49.0182 18.9542 49.0532L19.164 49.0882C19.199 49.0882 19.234 49.0882 19.269 49.0182L21.0874 43.2131L21.9267 37.2682C21.9267 37.2332 21.8917 37.1982 21.8568 37.1633C21.7868 37.1633 21.7169 37.1633 21.6469 37.1283Z" fill="#25317A"/>
<path d="M27.207 13.2434C27.242 13.2434 27.2769 13.2434 27.3119 13.1735L29.1304 7.36841L29.9347 1.42345C29.9347 1.38848 29.8997 1.35351 29.8648 1.31854C29.7948 1.31854 29.7249 1.28357 29.6549 1.28357C29.62 1.28357 29.585 1.28357 29.55 1.35351L27.7316 7.08865L26.9272 13.1035C26.9272 13.1385 26.9622 13.1735 26.9972 13.2085L27.207 13.2434Z" fill="#25317A"/>
<path d="M20.0025 36.6385C19.9326 36.6036 19.8627 36.6036 19.7927 36.5686C19.7578 36.5686 19.7228 36.5686 19.6878 36.6036L16.9951 41.989L15.2466 47.7941C15.2466 47.8291 15.2466 47.864 15.2816 47.899L15.4564 47.9689C15.4914 47.9689 15.5263 47.9689 15.5613 47.934L18.289 42.4786L20.0375 36.7085C20.0725 36.6735 20.0725 36.6385 20.0025 36.6385Z" fill="#25317A"/>
<path d="M28.8509 13.733L29.0258 13.8029C29.0607 13.8029 29.0957 13.8029 29.1307 13.7679L31.8584 8.31258L33.6069 2.57744C33.6069 2.54247 33.6069 2.5075 33.5719 2.47253C33.502 2.43756 33.432 2.43756 33.3621 2.40259C33.3271 2.40259 33.2921 2.40259 33.2572 2.43756L30.5645 7.82299L28.8159 13.6281C28.781 13.698 28.781 13.733 28.8509 13.733Z" fill="#25317A"/>
<path d="M18.3248 35.9042C18.3598 35.8693 18.3248 35.8343 18.2898 35.7993C18.2199 35.7644 18.15 35.7294 18.115 35.6944C18.08 35.6594 18.0451 35.6944 18.0101 35.7294L14.5131 40.6252L11.8553 46.0806C11.8203 46.1156 11.8553 46.1505 11.8903 46.1855L12.0651 46.2904C12.1001 46.3254 12.1351 46.2904 12.17 46.2555L15.702 41.3246L18.3248 35.9042Z" fill="#25317A"/>
<path d="M30.5291 14.4675C30.4942 14.5025 30.5291 14.5374 30.5641 14.5724L30.739 14.6773C30.7739 14.7123 30.8089 14.6773 30.8439 14.6424L34.3759 9.67657L36.9986 4.25617C37.0336 4.2212 36.9986 4.15126 36.9637 4.15126C36.8937 4.11629 36.8238 4.08132 36.7888 4.04635C36.7539 4.01138 36.7189 4.04635 36.6839 4.08132L33.1869 8.97716L30.5291 14.4675Z" fill="#25317A"/>
<path d="M16.7163 34.8201C16.7512 34.7851 16.7512 34.7502 16.7163 34.7152C16.6463 34.6802 16.6114 34.6452 16.5414 34.5753C16.5064 34.5403 16.4715 34.5403 16.4365 34.5753L12.2051 38.8767L8.74302 43.8424C8.70805 43.8774 8.70805 43.9124 8.74302 43.9474L8.88291 44.0872C8.91788 44.1222 8.95285 44.1222 8.98782 44.0872L13.2892 39.7509L16.7163 34.8201Z" fill="#25317A"/>
<path d="M32.1376 15.5515C32.1026 15.5865 32.1026 15.6215 32.1376 15.6565L32.3124 15.7963C32.3474 15.8313 32.3823 15.8313 32.4173 15.7963L36.6837 11.46L40.1108 6.5292C40.1458 6.49423 40.1458 6.45926 40.1108 6.42429C40.0409 6.38932 40.0059 6.31938 39.9359 6.28441C39.901 6.24944 39.866 6.24944 39.831 6.28441L35.5996 10.5858L32.1376 15.5515Z" fill="#25317A"/>
<path d="M15.3171 33.4914C15.3521 33.4564 15.3521 33.4214 15.3171 33.3864C15.2821 33.3515 15.2122 33.2815 15.1772 33.2466C15.1423 33.2116 15.1073 33.2116 15.0723 33.2466L10.2114 36.7786L6.015 41.1499C5.98003 41.1848 5.98003 41.2198 6.015 41.2548L6.15488 41.3947C6.18985 41.4296 6.22482 41.4296 6.25979 41.3947L11.1556 37.7577L15.3171 33.4914Z" fill="#25317A"/>
<path d="M33.537 16.8804C33.502 16.9154 33.502 16.9504 33.537 16.9854L33.6769 17.1252C33.7118 17.1602 33.7468 17.1602 33.7818 17.1252L38.6776 13.4883L42.8391 9.152C42.8741 9.11703 42.8741 9.08206 42.8391 9.04709C42.8041 9.01212 42.7342 8.94218 42.6992 8.90721C42.6642 8.87224 42.6293 8.87224 42.5943 8.90721L37.7684 12.5092L33.537 16.8804Z" fill="#25317A"/>
<path d="M14.1279 31.9525C14.1629 31.9176 14.1629 31.8826 14.1629 31.8476C14.1279 31.7777 14.0929 31.7427 14.058 31.6728C14.023 31.6378 13.988 31.6378 13.953 31.6378L8.60258 34.4005L3.77667 38.0724C3.7417 38.1073 3.7417 38.1423 3.7417 38.1773L3.84661 38.3521C3.88158 38.3871 3.91655 38.3871 3.95152 38.3871L9.33695 35.5895L14.1279 31.9525Z" fill="#25317A"/>
<path d="M34.7259 18.419C34.6909 18.4539 34.6909 18.4889 34.6909 18.5239L34.7958 18.6987C34.8308 18.7337 34.8658 18.7337 34.9007 18.7337L40.2862 15.9361L45.1121 12.2642C45.1471 12.2292 45.1471 12.1943 45.1471 12.1593C45.1121 12.0893 45.0771 12.0544 45.0421 11.9844C45.0072 11.9495 44.9722 11.9495 44.9372 11.9495L39.5868 14.7471L34.7259 18.419Z" fill="#25317A"/>
<path d="M13.1836 30.274C13.2186 30.2391 13.2536 30.2041 13.2186 30.1691C13.1836 30.0992 13.1487 30.0292 13.1487 29.9943C13.1487 29.9593 13.0787 29.9243 13.0437 29.9593L7.34358 31.8827L1.95815 34.6803C1.92318 34.7153 1.88821 34.7502 1.92318 34.7852L1.99312 34.9601C2.02809 35.03 2.06306 35.03 2.09803 35.03L7.86813 33.1066L13.1836 30.274Z" fill="#25317A"/>
<path d="M12.5197 28.4556C12.5547 28.4556 12.5896 28.3857 12.5896 28.3507C12.5547 28.2807 12.5547 28.2108 12.5547 28.1409C12.5547 28.1059 12.5197 28.0709 12.4497 28.0709L6.50478 29.0501L0.769648 31.0784C0.699707 31.0784 0.699707 31.1133 0.699707 31.1483L0.734677 31.3581C0.734677 31.3931 0.769648 31.4281 0.839588 31.4281L6.85449 30.4139L12.5197 28.4556Z" fill="#25317A"/>
<path d="M12.1691 26.5321C12.204 26.5321 12.239 26.4972 12.239 26.4272C12.239 26.3573 12.239 26.2873 12.204 26.2174C12.204 26.1824 12.1691 26.1475 12.1341 26.1475L6.1192 26.1824L0.139277 27.3015C0.104306 27.3015 0.0693359 27.3365 0.0693359 27.4064V27.6162C0.0693359 27.6512 0.104306 27.6862 0.139277 27.6862L6.22412 27.6162L12.1691 26.5321Z" fill="#25317A"/>
<path d="M6.08454 24.7138L12.0994 24.6089C12.1344 24.6089 12.1694 24.5739 12.1694 24.539C12.1694 24.469 12.1694 24.3991 12.1694 24.3291C12.1694 24.2942 12.1344 24.2592 12.0994 24.2592L6.15448 23.35L0.104609 23.4549C0.0696383 23.4549 0.034668 23.4899 0.034668 23.5248V23.7346C0.034668 23.7696 0.0696383 23.8046 0.104609 23.8046L6.08454 24.7138Z" fill="#25317A"/>
<path d="M6.40041 21.881L12.3454 22.6853C12.3803 22.6853 12.4153 22.6503 12.4503 22.6154C12.4503 22.5454 12.4852 22.4755 12.4852 22.4055C12.4852 22.3706 12.4852 22.3356 12.4153 22.3006L6.68017 20.4822L0.665272 19.6779C0.630302 19.6779 0.595331 19.7128 0.560361 19.7478L0.525391 19.9576C0.525391 19.9926 0.525391 20.0276 0.595331 20.0625L6.40041 21.881Z" fill="#25317A"/>
<path d="M7.1339 19.0836L12.869 20.8321C12.904 20.8321 12.9739 20.8321 12.9739 20.7971C13.0089 20.7272 13.0089 20.6572 13.0439 20.5873C13.0439 20.5523 13.0439 20.5173 13.0089 20.4824L7.62348 17.7897L1.81841 16.0411C1.78344 16.0411 1.74847 16.0411 1.7135 16.0761L1.64355 16.251C1.64355 16.2859 1.64355 16.3209 1.67853 16.3559L7.1339 19.0836Z" fill="#25317A"/>
<path d="M8.2874 16.4607L13.7078 19.0835C13.7428 19.1185 13.8127 19.0835 13.8127 19.0485C13.8477 18.9786 13.8827 18.9086 13.9176 18.8737C13.9526 18.8387 13.9176 18.8037 13.8827 18.7688L8.98681 15.2717L3.53144 12.614C3.49647 12.579 3.4615 12.614 3.42653 12.6489L3.32161 12.8238C3.28664 12.8588 3.32161 12.8937 3.35658 12.9287L8.2874 16.4607Z" fill="#25317A"/>
<path d="M40.6006 33.9458L35.1452 31.288C35.1102 31.2531 35.0753 31.288 35.0403 31.323L34.9354 31.4979C34.9004 31.5328 34.9354 31.5678 34.9704 31.6028L39.9361 35.1348L45.3565 37.7576C45.3915 37.7925 45.4615 37.7576 45.4615 37.7226C45.4964 37.6526 45.5314 37.5827 45.5664 37.5477C45.6013 37.5128 45.5664 37.4778 45.5314 37.4428L40.6006 33.9458Z" fill="#25317A"/>
<path d="M9.86157 14.0478L14.7924 17.4749C14.8274 17.5099 14.8623 17.5099 14.8973 17.4749C14.9323 17.405 15.0022 17.37 15.0372 17.3001C15.0722 17.2651 15.0722 17.2301 15.0372 17.1952L10.7358 12.9638L5.77004 9.50169C5.73507 9.46672 5.7001 9.46672 5.66513 9.50169L5.52525 9.64157C5.49028 9.67654 5.49028 9.71151 5.52525 9.74648L9.86157 14.0478Z" fill="#25317A"/>
<path d="M39.0272 36.3588L34.0264 32.8967C33.9914 32.8617 33.9565 32.8617 33.9215 32.8967L33.7816 33.0366C33.7466 33.0716 33.7466 33.1065 33.7816 33.1415L38.1179 37.4079L43.0487 40.835C43.0837 40.8699 43.1187 40.8699 43.1537 40.835C43.1886 40.765 43.2236 40.7301 43.2935 40.6601C43.3285 40.6252 43.3285 40.5902 43.2935 40.5552L39.0272 36.3588Z" fill="#25317A"/>
<path d="M16.1214 16.041C16.1564 16.076 16.1914 16.076 16.2263 16.041C16.2613 16.0061 16.3312 15.9361 16.3662 15.9012C16.4012 15.8662 16.4012 15.8312 16.3662 15.7963L12.8342 10.9703L8.46291 6.77391C8.42794 6.73894 8.39297 6.73894 8.358 6.77391L8.21812 6.91379C8.18315 6.94876 8.18315 6.98373 8.21812 7.0187L11.855 11.9145L16.1214 16.041Z" fill="#25317A"/>
<path d="M32.732 34.2956C32.697 34.2607 32.662 34.2607 32.627 34.2956L32.4872 34.4355C32.4522 34.4705 32.4522 34.5055 32.4872 34.5404L36.1241 39.4363L40.4604 43.5977C40.4954 43.6327 40.5303 43.6327 40.5653 43.5977C40.6003 43.5628 40.6702 43.4928 40.7402 43.4579C40.7751 43.4229 40.7751 43.3879 40.7402 43.353L37.1032 38.527L32.732 34.2956Z" fill="#25317A"/>
<path d="M14.023 10.096L17.6599 14.887C17.6949 14.922 17.7299 14.922 17.7649 14.922C17.8348 14.887 17.8698 14.852 17.9397 14.817C17.9747 14.7821 17.9747 14.7471 17.9747 14.7121L15.212 9.36167L11.5052 4.50079C11.4702 4.46582 11.4352 4.46582 11.4003 4.46582L11.2254 4.57073C11.1904 4.6057 11.1904 4.64067 11.1904 4.67564L14.023 10.096Z" fill="#25317A"/>
<path d="M31.1936 35.4846C31.1587 35.4496 31.1237 35.4496 31.0887 35.4496L30.9139 35.5545C30.8789 35.5895 30.8789 35.6244 30.8789 35.6594L33.6765 41.0448L37.3134 45.8358C37.3484 45.8707 37.3834 45.8707 37.4184 45.8707C37.4883 45.8358 37.5233 45.8008 37.5932 45.7658C37.6282 45.7309 37.6282 45.6959 37.6282 45.6609L34.8306 40.3105L31.1936 35.4846Z" fill="#25317A"/>
<path d="M19.3385 13.9428C19.3735 13.9778 19.4085 14.0127 19.4434 13.9778C19.5134 13.9428 19.5833 13.9078 19.6532 13.9078C19.6882 13.9078 19.7232 13.8379 19.6882 13.8029L17.7648 8.10274L14.9322 2.7173C14.8973 2.68233 14.8623 2.64736 14.8273 2.68233L14.6525 2.75227C14.6175 2.75227 14.5825 2.82221 14.6175 2.85718L16.5409 8.62729L19.3385 13.9428Z" fill="#25317A"/>
<path d="M29.5153 36.4288C29.4803 36.3939 29.4453 36.3589 29.4103 36.3939L29.2355 36.4638C29.2005 36.4638 29.1656 36.5338 29.2005 36.5687L31.1239 42.3388L33.9565 47.6543C33.9915 47.6893 34.0264 47.7243 34.0614 47.6893C34.1313 47.6543 34.2013 47.6194 34.2712 47.6194C34.3062 47.6194 34.3412 47.5494 34.3062 47.5144L32.3828 41.8143L29.5153 36.4288Z" fill="#25317A"/>
<path d="M51.1616 17.0553V18.8738H55.8826V33.3515H58.0858V18.8738H62.8067L62.0374 17.0553H51.1616Z" fill="#25317A"/>
<path d="M100.225 31.7078C96.658 31.7078 94.4199 29.12 94.4199 25.1684C94.4199 21.1118 97.0777 18.6989 100.4 18.6989C102.673 18.6989 104.107 19.6781 104.317 19.783C104.317 19.783 104.771 18.7339 105.051 18.1044C104.491 17.6847 102.953 16.7755 100.295 16.7755C95.8187 16.7755 92.2168 19.9228 92.2168 25.3432C92.2168 30.5538 95.6439 33.6312 99.9802 33.6312C102.743 33.6312 104.561 32.5821 105.191 32.1275C104.981 31.6029 104.456 30.4489 104.456 30.4489C104.282 30.5538 102.568 31.7078 100.225 31.7078Z" fill="#25317A"/>
<path d="M112.36 21.2866C108.933 21.2866 106.729 23.8045 106.729 27.4764C106.729 31.1832 108.898 33.6312 112.185 33.6312C115.577 33.6312 117.78 31.1832 117.78 27.4764C117.78 23.6996 115.647 21.2866 112.36 21.2866ZM112.29 31.8826C110.261 31.8826 108.758 30.0991 108.758 27.4064C108.758 24.7487 110.087 23.0002 112.22 23.0002C114.248 23.0002 115.717 24.8186 115.717 27.5113C115.717 30.1691 114.493 31.8826 112.29 31.8826Z" fill="#25317A"/>
<path d="M132.537 21.2866C130.753 21.2866 129.424 22.021 128.445 22.6505C127.921 21.9161 127.047 21.2866 125.543 21.2866C123.689 21.2866 122.081 22.3707 121.941 22.4756L121.556 21.6014H120.087V33.3514H122.151V24.0143C122.326 23.9094 123.724 23.0351 125.158 23.0351C125.858 23.0351 126.382 23.245 126.697 23.5597C127.291 24.1892 127.291 25.2732 127.291 26.8469V33.3514H129.32V26.777C129.32 25.8328 129.32 24.5389 129.11 24.0493C129.39 23.8744 130.788 23.0701 132.222 23.0701C132.922 23.0701 133.446 23.2799 133.831 23.6646C134.425 24.329 134.425 25.7628 134.425 26.4972V33.3514H136.488V26.5322C136.488 24.6438 136.454 23.4198 135.334 22.3008C134.985 21.9161 134.145 21.2866 132.537 21.2866Z" fill="#25317A"/>
<path d="M151.736 21.2866C149.953 21.2866 148.624 22.021 147.645 22.6505C147.12 21.9161 146.246 21.2866 144.742 21.2866C142.889 21.2866 141.28 22.3707 141.14 22.4756L140.755 21.6014H139.287V33.3514H141.35V24.0143C141.525 23.9094 142.924 23.0351 144.357 23.0351C145.057 23.0351 145.581 23.245 145.896 23.5597C146.491 24.1892 146.491 25.2732 146.491 26.8469V33.3514H148.519V26.777C148.519 25.8328 148.519 24.5389 148.309 24.0493C148.589 23.8744 149.988 23.0701 151.421 23.0701C152.121 23.0701 152.645 23.2799 153.03 23.6646C153.624 24.329 153.624 25.7628 153.624 26.4972V33.3514H155.688V26.5322C155.688 24.6438 155.653 23.4198 154.534 22.3008C154.184 21.9161 153.38 21.2866 151.736 21.2866Z" fill="#25317A"/>
<path d="M163.661 21.2866C160.234 21.2866 158.031 23.8045 158.031 27.4764C158.031 31.1832 160.234 33.6312 163.487 33.6312C166.879 33.6312 169.082 31.1832 169.082 27.4764C169.117 23.6996 166.949 21.2866 163.661 21.2866ZM163.627 31.8826C161.598 31.8826 160.094 30.0991 160.094 27.4064C160.094 24.7487 161.423 23.0002 163.557 23.0002C165.585 23.0002 167.054 24.8186 167.054 27.5113C167.054 30.1691 165.795 31.8826 163.627 31.8826Z" fill="#25317A"/>
<path d="M176.915 21.2866C174.922 21.2866 173.453 22.3707 173.243 22.4756L172.858 21.6014H171.39V33.3514H173.453V24.0493C173.558 23.9793 175.027 23.0351 176.53 23.0351C177.265 23.0351 177.859 23.3149 178.174 23.6296C178.768 24.2241 178.803 25.2033 178.803 26.6721V33.3514H180.867V26.5322C180.867 24.6438 180.832 23.4198 179.713 22.3008C179.398 21.9161 178.559 21.2866 176.915 21.2866Z" fill="#25317A"/>
<path d="M194.61 31.1832L191.987 21.6013H189.714L187.056 31.1832L184.573 21.6013H182.545L185.797 33.3514H188.07L190.728 23.6995L193.421 33.3514H195.729L199.121 21.6013H197.163L194.61 31.1832Z" fill="#25317A"/>
<path d="M205.52 21.2866C202.233 21.2866 200.065 23.8045 200.065 27.5463C200.065 31.0433 202.093 33.6312 205.66 33.6312C207.828 33.6312 209.332 32.7569 209.787 32.4771C209.577 31.9526 209.157 30.9734 209.157 30.9734C208.947 31.0783 207.688 31.8826 205.835 31.8826C203.282 31.8826 202.128 30.0642 202.128 28.0359H210.311C210.311 27.8261 210.346 27.4064 210.346 27.1616C210.346 23.4548 208.458 21.2866 205.52 21.2866ZM202.128 26.3923C202.303 24.2941 203.667 22.9302 205.52 22.9302C207.688 22.9302 208.353 25.0284 208.353 26.3923H202.128Z" fill="#25317A"/>
<path d="M217.026 21.2866C214.823 21.2866 213.354 22.1259 212.969 22.4057C213.214 22.9652 213.599 23.8744 213.599 23.8744C213.773 23.7695 215.102 22.9652 216.816 22.9652C217.655 22.9652 218.425 23.1051 218.879 23.5597C219.334 24.0143 219.369 24.5389 219.369 25.2033V25.9726H218.844C217.026 25.9726 212.13 26.0776 212.13 29.9593C212.13 32.1274 213.634 33.5962 215.907 33.5962C217.935 33.5962 219.369 32.5471 219.509 32.4771L219.893 33.3514H221.362V25.9726C221.362 24.364 221.292 23.3499 220.418 22.4756C219.579 21.6363 218.285 21.2866 217.026 21.2866ZM219.369 31.0433C219.089 31.1483 217.9 31.9176 216.431 31.9176C214.962 31.9176 214.088 31.0783 214.088 29.8893C214.088 29.2948 214.263 28.8752 214.613 28.5255C215.382 27.7561 216.886 27.5113 218.739 27.5113H219.334V31.0433H219.369Z" fill="#25317A"/>
<path d="M226.258 17.0553H224.195V33.3515H226.258V17.0553Z" fill="#25317A"/>
<path d="M244.862 22.3008C244.512 21.9511 243.673 21.2867 242.029 21.2867C240.246 21.2867 238.707 22.2309 238.567 22.3358V17.0902H236.504V33.3864H238.567V24.0493C238.672 23.9794 240.141 23.0352 241.645 23.0352C242.379 23.0352 242.973 23.3149 243.288 23.6297C243.883 24.2242 243.918 25.2033 243.918 26.6721V33.3514H245.981V26.5322C246.051 24.6438 245.981 23.4198 244.862 22.3008Z" fill="#25317A"/>
<path d="M70.2201 21.2867C68.4367 21.2867 66.898 22.2309 66.7581 22.3358V17.0902H64.6948V33.3864H66.7581V24.0493C66.863 23.9794 68.3317 23.0352 69.8355 23.0352C70.5698 23.0352 71.1643 23.3149 71.4791 23.6297C72.0736 24.2242 72.1085 25.2033 72.1085 26.6721V33.3514H74.1718V26.5322C74.1718 24.6438 74.1368 23.4198 73.0178 22.3008C72.6681 21.9161 71.8637 21.2867 70.2201 21.2867Z" fill="#25317A"/>
<path d="M82.0052 21.2866C78.718 21.2866 76.5498 23.8045 76.5498 27.5463C76.5498 31.0433 78.5781 33.6312 82.1451 33.6312C84.3482 33.6312 85.8519 32.7569 86.3065 32.4422C86.0617 31.9176 85.6421 30.9384 85.6421 30.9384C85.4323 31.0433 84.1733 31.8477 82.3199 31.8477C79.7671 31.8477 78.6131 30.0292 78.6131 28.0009H86.7961C86.7961 27.7911 86.8311 27.3715 86.8311 27.1267C86.8311 23.4548 84.9427 21.2866 82.0052 21.2866ZM78.6131 26.3923C78.7879 24.2941 80.1518 22.9302 82.0052 22.9302C84.1733 22.9302 84.8378 25.0284 84.8378 26.3923H78.6131Z" fill="#25317A"/>
<path d="M232.867 31.8478C231.188 31.8478 231.153 30.7986 231.153 29.6096V23.28H234.126V21.5665H231.153V17.0553H229.055V21.5665V23.28V29.2949C229.055 30.6937 228.985 31.8827 229.824 32.757C230.454 33.3864 231.398 33.6662 232.482 33.6662C233.322 33.6662 233.986 33.4914 234.441 33.3165C234.196 32.722 233.986 32.2674 233.811 31.8128C233.531 31.8128 233.217 31.8478 232.867 31.8478Z" fill="#25317A"/>
</svg>
